<mxfile host="65bd71144e" pages="2">
    <diagram name="projeciton" id="MIkcU374tv_12QCpzjZ1">
        <mxGraphModel dx="997" dy="502" grid="1" gridSize="10" guides="1" tooltips="1" connect="0" arrows="0" fold="1" page="1" pageScale="1" pageWidth="827" pageHeight="1169" math="1" shadow="0">
            <root>
                <mxCell id="k3KxTLAnCmBX_Phjoh5w-0"/>
                <mxCell id="k3KxTLAnCmBX_Phjoh5w-1" parent="k3KxTLAnCmBX_Phjoh5w-0"/>
                <mxCell id="yLmU1kd1iDdyZoZ2FdNo-0" value="" style="ellipse;whiteSpace=wrap;html=1;fontSize=20;fontColor=#000000;strokeColor=none;fillColor=#4D9900;" parent="k3KxTLAnCmBX_Phjoh5w-1" vertex="1">
                    <mxGeometry x="455" y="435" width="10" height="10" as="geometry"/>
                </mxCell>
                <mxCell id="u7evPRKJZKQvGGjpSIO4-0" value="" style="endArrow=open;html=1;strokeWidth=2;dashed=1;endFill=0;strokeColor=#CC6600;" parent="k3KxTLAnCmBX_Phjoh5w-1" edge="1">
                    <mxGeometry width="50" height="50" relative="1" as="geometry">
                        <mxPoint x="200" y="760" as="sourcePoint"/>
                        <mxPoint x="420" y="320" as="targetPoint"/>
                    </mxGeometry>
                </mxCell>
                <mxCell id="k3KxTLAnCmBX_Phjoh5w-2" value="" style="endArrow=classic;html=1;fontFamily=Comic Sans MS;fontSize=30;fontColor=#003366;strokeWidth=2;strokeColor=#B3B3B3;" parent="k3KxTLAnCmBX_Phjoh5w-1" edge="1">
                    <mxGeometry x="220" y="200" width="50" height="50" as="geometry">
                        <mxPoint x="320" y="760" as="sourcePoint"/>
                        <mxPoint x="320" y="320" as="targetPoint"/>
                    </mxGeometry>
                </mxCell>
                <mxCell id="k3KxTLAnCmBX_Phjoh5w-3" value="" style="endArrow=classic;html=1;fontFamily=Comic Sans MS;fontSize=30;fontColor=#003366;strokeWidth=2;strokeColor=#B3B3B3;" parent="k3KxTLAnCmBX_Phjoh5w-1" edge="1">
                    <mxGeometry x="240" y="220" width="50" height="50" as="geometry">
                        <mxPoint x="120" y="520" as="sourcePoint"/>
                        <mxPoint x="560" y="520" as="targetPoint"/>
                    </mxGeometry>
                </mxCell>
                <mxCell id="k3KxTLAnCmBX_Phjoh5w-6" value="\(x_1\)" style="text;html=1;strokeColor=none;fillColor=none;align=center;verticalAlign=middle;whiteSpace=wrap;rounded=0;fontSize=20;fontColor=#B3B3B3;" parent="k3KxTLAnCmBX_Phjoh5w-1" vertex="1">
                    <mxGeometry x="520" y="520" width="40" height="40" as="geometry"/>
                </mxCell>
                <mxCell id="k3KxTLAnCmBX_Phjoh5w-7" value="\(x_2\)" style="text;html=1;strokeColor=none;fillColor=none;align=center;verticalAlign=middle;whiteSpace=wrap;rounded=0;fontSize=20;fontColor=#B3B3B3;" parent="k3KxTLAnCmBX_Phjoh5w-1" vertex="1">
                    <mxGeometry x="280" y="320" width="40" height="40" as="geometry"/>
                </mxCell>
                <mxCell id="k3KxTLAnCmBX_Phjoh5w-19" value="" style="endArrow=none;html=1;strokeWidth=3;fontSize=20;" parent="k3KxTLAnCmBX_Phjoh5w-1" edge="1">
                    <mxGeometry width="50" height="50" relative="1" as="geometry">
                        <mxPoint x="120" y="420" as="sourcePoint"/>
                        <mxPoint x="560" y="640" as="targetPoint"/>
                    </mxGeometry>
                </mxCell>
                <mxCell id="k3KxTLAnCmBX_Phjoh5w-39" value="&lt;span style=&quot;font-size: 25px&quot;&gt;\(\boldsymbol{w} ^{\top} \boldsymbol{x} =0\)&lt;/span&gt;" style="text;html=1;strokeColor=none;fillColor=none;align=center;verticalAlign=middle;whiteSpace=wrap;rounded=0;fontSize=25;rotation=27;" parent="k3KxTLAnCmBX_Phjoh5w-1" vertex="1">
                    <mxGeometry x="120" y="410" width="120" height="40" as="geometry"/>
                </mxCell>
                <mxCell id="W_tSbvIumAbR6D2kscM7-8" value="&lt;span style=&quot;font-size: 25px;&quot;&gt;\(\boldsymbol{w}^{\top}\boldsymbol{x}\)&lt;/span&gt;" style="text;html=1;strokeColor=none;fillColor=none;align=center;verticalAlign=middle;whiteSpace=wrap;rounded=0;fontSize=25;fontColor=#CC6600;" parent="k3KxTLAnCmBX_Phjoh5w-1" vertex="1">
                    <mxGeometry x="390" y="280" width="80" height="40" as="geometry"/>
                </mxCell>
                <mxCell id="k3KxTLAnCmBX_Phjoh5w-11" value="" style="endArrow=classic;html=1;strokeWidth=4;strokeColor=#808080;" parent="k3KxTLAnCmBX_Phjoh5w-1" edge="1">
                    <mxGeometry width="50" height="50" relative="1" as="geometry">
                        <mxPoint x="320" y="520" as="sourcePoint"/>
                        <mxPoint x="400" y="360" as="targetPoint"/>
                    </mxGeometry>
                </mxCell>
                <mxCell id="k3KxTLAnCmBX_Phjoh5w-12" value="&lt;font style=&quot;font-size: 20px&quot;&gt;\(\boldsymbol{w}\)&lt;/font&gt;" style="text;html=1;strokeColor=none;fillColor=none;align=center;verticalAlign=middle;whiteSpace=wrap;rounded=0;fontSize=20;fontColor=#808080;" parent="k3KxTLAnCmBX_Phjoh5w-1" vertex="1">
                    <mxGeometry x="360" y="360" width="20" height="20" as="geometry"/>
                </mxCell>
                <mxCell id="-e43FTGoa2iz4HoaFS14-3" value="&lt;font color=&quot;#7ea6e0&quot;&gt;\(\boldsymbol{w}^{\top}\boldsymbol{x}&amp;gt;0\)&lt;/font&gt;" style="text;html=1;strokeColor=none;fillColor=none;align=center;verticalAlign=middle;whiteSpace=wrap;rounded=0;fontSize=20;rotation=27;fontColor=#EA6B66;" parent="k3KxTLAnCmBX_Phjoh5w-1" vertex="1">
                    <mxGeometry x="411" y="562" width="160" height="40" as="geometry"/>
                </mxCell>
                <mxCell id="-e43FTGoa2iz4HoaFS14-4" value="&lt;font&gt;\(\boldsymbol{w}^{\top}\boldsymbol{x}&amp;lt;0\)&lt;/font&gt;" style="text;html=1;strokeColor=none;fillColor=none;align=center;verticalAlign=middle;whiteSpace=wrap;rounded=0;fontSize=20;rotation=27;fontColor=#EA6B66;" parent="k3KxTLAnCmBX_Phjoh5w-1" vertex="1">
                    <mxGeometry x="391" y="599" width="160" height="40" as="geometry"/>
                </mxCell>
                <mxCell id="-e43FTGoa2iz4HoaFS14-5" value="" style="endArrow=none;html=1;strokeWidth=3;fontSize=20;dashed=1;strokeColor=#B3B3B3;" parent="k3KxTLAnCmBX_Phjoh5w-1" edge="1">
                    <mxGeometry width="50" height="50" relative="1" as="geometry">
                        <mxPoint x="380" y="400" as="sourcePoint"/>
                        <mxPoint x="460" y="440.0000000000001" as="targetPoint"/>
                    </mxGeometry>
                </mxCell>
                <mxCell id="-e43FTGoa2iz4HoaFS14-6" value="&lt;font style=&quot;font-size: 20px&quot;&gt;\(\boldsymbol{x}_0\)&lt;/font&gt;" style="text;html=1;strokeColor=none;fillColor=none;align=center;verticalAlign=middle;whiteSpace=wrap;rounded=0;fontSize=20;fontColor=#4D9900;" parent="k3KxTLAnCmBX_Phjoh5w-1" vertex="1">
                    <mxGeometry x="470" y="430" width="30" height="20" as="geometry"/>
                </mxCell>
                <mxCell id="-e43FTGoa2iz4HoaFS14-7" value="&lt;font style=&quot;font-size: 20px&quot;&gt;\(d\)&lt;/font&gt;" style="text;html=1;strokeColor=none;fillColor=none;align=center;verticalAlign=middle;whiteSpace=wrap;rounded=0;fontSize=20;fontColor=#97D077;" parent="k3KxTLAnCmBX_Phjoh5w-1" vertex="1">
                    <mxGeometry x="430" y="490" width="20" height="20" as="geometry"/>
                </mxCell>
                <mxCell id="-e43FTGoa2iz4HoaFS14-8" value="" style="endArrow=open;html=1;strokeWidth=2;startArrow=none;startFill=0;endFill=0;strokeColor=#97D077;" parent="k3KxTLAnCmBX_Phjoh5w-1" edge="1">
                    <mxGeometry width="50" height="50" relative="1" as="geometry">
                        <mxPoint x="400" y="560" as="sourcePoint"/>
                        <mxPoint x="460" y="440.0000000000001" as="targetPoint"/>
                    </mxGeometry>
                </mxCell>
                <mxCell id="-e43FTGoa2iz4HoaFS14-9" value="" style="endArrow=open;html=1;strokeWidth=2;startArrow=none;startFill=0;endFill=0;strokeColor=#CC6600;" parent="k3KxTLAnCmBX_Phjoh5w-1" edge="1">
                    <mxGeometry width="50" height="50" relative="1" as="geometry">
                        <mxPoint x="260" y="340.0000000000001" as="sourcePoint"/>
                        <mxPoint x="380" y="400" as="targetPoint"/>
                    </mxGeometry>
                </mxCell>
                <mxCell id="-e43FTGoa2iz4HoaFS14-10" value="\(\boldsymbol{w}^{\top} \boldsymbol{x}_0= d\lVert\boldsymbol{w}\rVert\)" style="text;html=1;strokeColor=none;fillColor=none;align=center;verticalAlign=middle;whiteSpace=wrap;rounded=0;fontSize=20;fontColor=#CC6600;" parent="k3KxTLAnCmBX_Phjoh5w-1" vertex="1">
                    <mxGeometry x="100" y="310" width="160" height="40" as="geometry"/>
                </mxCell>
            </root>
        </mxGraphModel>
    </diagram>
    <diagram name="Copy of projeciton" id="iKB6K9MpOySjM9UYa--4">
        <mxGraphModel dx="2177" dy="843" grid="1" gridSize="10" guides="1" tooltips="1" connect="0" arrows="0" fold="1" page="1" pageScale="1" pageWidth="827" pageHeight="1169" math="1" shadow="0">
            <root>
                <mxCell id="fN8ERMzjA76fTedo2qL7-0"/>
                <mxCell id="fN8ERMzjA76fTedo2qL7-1" parent="fN8ERMzjA76fTedo2qL7-0"/>
                <mxCell id="fN8ERMzjA76fTedo2qL7-2" value="" style="endArrow=open;html=1;strokeWidth=2;dashed=1;endFill=0;strokeColor=#CC6600;" edge="1" parent="fN8ERMzjA76fTedo2qL7-1">
                    <mxGeometry width="50" height="50" relative="1" as="geometry">
                        <mxPoint x="200" y="760" as="sourcePoint"/>
                        <mxPoint x="420" y="320" as="targetPoint"/>
                    </mxGeometry>
                </mxCell>
                <mxCell id="fN8ERMzjA76fTedo2qL7-3" value="" style="endArrow=classic;html=1;fontFamily=Comic Sans MS;fontSize=30;fontColor=#003366;strokeWidth=2;strokeColor=#B3B3B3;" edge="1" parent="fN8ERMzjA76fTedo2qL7-1">
                    <mxGeometry x="220" y="200" width="50" height="50" as="geometry">
                        <mxPoint x="320" y="760" as="sourcePoint"/>
                        <mxPoint x="320" y="320" as="targetPoint"/>
                    </mxGeometry>
                </mxCell>
                <mxCell id="fN8ERMzjA76fTedo2qL7-4" value="" style="endArrow=classic;html=1;fontFamily=Comic Sans MS;fontSize=30;fontColor=#003366;strokeWidth=2;strokeColor=#B3B3B3;" edge="1" parent="fN8ERMzjA76fTedo2qL7-1">
                    <mxGeometry x="240" y="220" width="50" height="50" as="geometry">
                        <mxPoint x="120" y="520" as="sourcePoint"/>
                        <mxPoint x="560" y="520" as="targetPoint"/>
                    </mxGeometry>
                </mxCell>
                <mxCell id="fN8ERMzjA76fTedo2qL7-5" value="\(x_1\)" style="text;html=1;strokeColor=none;fillColor=none;align=center;verticalAlign=middle;whiteSpace=wrap;rounded=0;fontSize=20;fontColor=#B3B3B3;" vertex="1" parent="fN8ERMzjA76fTedo2qL7-1">
                    <mxGeometry x="520" y="520" width="40" height="40" as="geometry"/>
                </mxCell>
                <mxCell id="fN8ERMzjA76fTedo2qL7-6" value="\(x_2\)" style="text;html=1;strokeColor=none;fillColor=none;align=center;verticalAlign=middle;whiteSpace=wrap;rounded=0;fontSize=20;fontColor=#B3B3B3;" vertex="1" parent="fN8ERMzjA76fTedo2qL7-1">
                    <mxGeometry x="280" y="320" width="40" height="40" as="geometry"/>
                </mxCell>
                <mxCell id="fN8ERMzjA76fTedo2qL7-7" value="" style="endArrow=none;html=1;strokeWidth=3;fontSize=20;" edge="1" parent="fN8ERMzjA76fTedo2qL7-1">
                    <mxGeometry width="50" height="50" relative="1" as="geometry">
                        <mxPoint x="120" y="420" as="sourcePoint"/>
                        <mxPoint x="560" y="640" as="targetPoint"/>
                    </mxGeometry>
                </mxCell>
                <mxCell id="fN8ERMzjA76fTedo2qL7-8" value="&lt;span style=&quot;font-size: 25px;&quot;&gt;\(\boldsymbol{w}^{\top}\boldsymbol{x}=0\)&lt;/span&gt;" style="text;html=1;strokeColor=none;fillColor=none;align=center;verticalAlign=middle;whiteSpace=wrap;rounded=0;fontSize=25;rotation=27;" vertex="1" parent="fN8ERMzjA76fTedo2qL7-1">
                    <mxGeometry x="120" y="410" width="120" height="40" as="geometry"/>
                </mxCell>
                <mxCell id="fN8ERMzjA76fTedo2qL7-9" value="\(4\)" style="text;html=1;strokeColor=none;fillColor=none;align=right;verticalAlign=middle;whiteSpace=wrap;rounded=0;fontSize=25;fontColor=#CC6600;" vertex="1" parent="fN8ERMzjA76fTedo2qL7-1">
                    <mxGeometry x="320" y="320" width="40" height="40" as="geometry"/>
                </mxCell>
                <mxCell id="fN8ERMzjA76fTedo2qL7-10" value="&lt;span style=&quot;font-size: 25px;&quot;&gt;\(\boldsymbol{w}^{\top}\boldsymbol{x}\)&lt;/span&gt;" style="text;html=1;strokeColor=none;fillColor=none;align=center;verticalAlign=middle;whiteSpace=wrap;rounded=0;fontSize=25;fontColor=#CC6600;" vertex="1" parent="fN8ERMzjA76fTedo2qL7-1">
                    <mxGeometry x="390" y="280" width="80" height="40" as="geometry"/>
                </mxCell>
                <mxCell id="fN8ERMzjA76fTedo2qL7-11" value="" style="endArrow=classic;html=1;strokeWidth=2;startArrow=classic;startFill=1;strokeColor=#CC6600;" edge="1" parent="fN8ERMzjA76fTedo2qL7-1">
                    <mxGeometry width="50" height="50" relative="1" as="geometry">
                        <mxPoint x="240" y="730" as="sourcePoint"/>
                        <mxPoint x="260" y="690" as="targetPoint"/>
                    </mxGeometry>
                </mxCell>
                <mxCell id="fN8ERMzjA76fTedo2qL7-12" value="&lt;span style=&quot;font-size: 25px;&quot;&gt;\(\frac{1}{\lVert\boldsymbol{w}\rVert}\)&lt;/span&gt;" style="text;html=1;strokeColor=none;fillColor=none;align=center;verticalAlign=middle;whiteSpace=wrap;rounded=0;fontSize=25;fontColor=#CC6600;" vertex="1" parent="fN8ERMzjA76fTedo2qL7-1">
                    <mxGeometry x="260" y="700" width="40" height="60" as="geometry"/>
                </mxCell>
                <mxCell id="fN8ERMzjA76fTedo2qL7-13" value="" style="endArrow=none;html=1;strokeWidth=3;fontSize=20;strokeColor=#CC6600;" edge="1" parent="fN8ERMzjA76fTedo2qL7-1">
                    <mxGeometry width="50" height="50" relative="1" as="geometry">
                        <mxPoint x="180" y="700" as="sourcePoint"/>
                        <mxPoint x="260" y="740" as="targetPoint"/>
                    </mxGeometry>
                </mxCell>
                <mxCell id="fN8ERMzjA76fTedo2qL7-14" value="" style="endArrow=none;html=1;strokeWidth=3;fontSize=20;strokeColor=#CC6600;" edge="1" parent="fN8ERMzjA76fTedo2qL7-1">
                    <mxGeometry width="50" height="50" relative="1" as="geometry">
                        <mxPoint x="200" y="658" as="sourcePoint"/>
                        <mxPoint x="280" y="698" as="targetPoint"/>
                    </mxGeometry>
                </mxCell>
                <mxCell id="fN8ERMzjA76fTedo2qL7-15" value="" style="endArrow=none;html=1;strokeWidth=3;fontSize=20;strokeColor=#CC6600;" edge="1" parent="fN8ERMzjA76fTedo2qL7-1">
                    <mxGeometry width="50" height="50" relative="1" as="geometry">
                        <mxPoint x="220" y="620" as="sourcePoint"/>
                        <mxPoint x="300" y="660" as="targetPoint"/>
                    </mxGeometry>
                </mxCell>
                <mxCell id="fN8ERMzjA76fTedo2qL7-16" value="" style="endArrow=none;html=1;strokeWidth=3;fontSize=20;strokeColor=#CC6600;" edge="1" parent="fN8ERMzjA76fTedo2qL7-1">
                    <mxGeometry width="50" height="50" relative="1" as="geometry">
                        <mxPoint x="240" y="580" as="sourcePoint"/>
                        <mxPoint x="320" y="620" as="targetPoint"/>
                    </mxGeometry>
                </mxCell>
                <mxCell id="fN8ERMzjA76fTedo2qL7-17" value="" style="endArrow=none;html=1;strokeWidth=3;fontSize=20;strokeColor=#CC6600;" edge="1" parent="fN8ERMzjA76fTedo2qL7-1">
                    <mxGeometry width="50" height="50" relative="1" as="geometry">
                        <mxPoint x="260" y="540" as="sourcePoint"/>
                        <mxPoint x="340" y="580" as="targetPoint"/>
                    </mxGeometry>
                </mxCell>
                <mxCell id="fN8ERMzjA76fTedo2qL7-18" value="" style="endArrow=none;html=1;strokeWidth=3;fontSize=20;strokeColor=#CC6600;" edge="1" parent="fN8ERMzjA76fTedo2qL7-1">
                    <mxGeometry width="50" height="50" relative="1" as="geometry">
                        <mxPoint x="300" y="460" as="sourcePoint"/>
                        <mxPoint x="380" y="500" as="targetPoint"/>
                    </mxGeometry>
                </mxCell>
                <mxCell id="fN8ERMzjA76fTedo2qL7-19" value="" style="endArrow=none;html=1;strokeWidth=3;fontSize=20;strokeColor=#CC6600;" edge="1" parent="fN8ERMzjA76fTedo2qL7-1">
                    <mxGeometry width="50" height="50" relative="1" as="geometry">
                        <mxPoint x="320" y="420" as="sourcePoint"/>
                        <mxPoint x="400" y="460" as="targetPoint"/>
                    </mxGeometry>
                </mxCell>
                <mxCell id="fN8ERMzjA76fTedo2qL7-20" value="" style="endArrow=none;html=1;strokeWidth=3;fontSize=20;strokeColor=#CC6600;" edge="1" parent="fN8ERMzjA76fTedo2qL7-1">
                    <mxGeometry width="50" height="50" relative="1" as="geometry">
                        <mxPoint x="340" y="380" as="sourcePoint"/>
                        <mxPoint x="420" y="420" as="targetPoint"/>
                    </mxGeometry>
                </mxCell>
                <mxCell id="fN8ERMzjA76fTedo2qL7-21" value="" style="endArrow=none;html=1;strokeWidth=3;fontSize=20;strokeColor=#CC6600;" edge="1" parent="fN8ERMzjA76fTedo2qL7-1">
                    <mxGeometry width="50" height="50" relative="1" as="geometry">
                        <mxPoint x="360" y="340" as="sourcePoint"/>
                        <mxPoint x="440" y="380" as="targetPoint"/>
                    </mxGeometry>
                </mxCell>
                <mxCell id="fN8ERMzjA76fTedo2qL7-22" value="\(2\)" style="text;html=1;strokeColor=none;fillColor=none;align=right;verticalAlign=middle;whiteSpace=wrap;rounded=0;fontSize=25;fontColor=#CC6600;" vertex="1" parent="fN8ERMzjA76fTedo2qL7-1">
                    <mxGeometry x="280" y="400" width="40" height="40" as="geometry"/>
                </mxCell>
                <mxCell id="fN8ERMzjA76fTedo2qL7-23" value="\(1\)" style="text;html=1;strokeColor=none;fillColor=none;align=right;verticalAlign=middle;whiteSpace=wrap;rounded=0;fontSize=25;fontColor=#CC6600;" vertex="1" parent="fN8ERMzjA76fTedo2qL7-1">
                    <mxGeometry x="260" y="440" width="40" height="40" as="geometry"/>
                </mxCell>
                <mxCell id="fN8ERMzjA76fTedo2qL7-24" value="" style="endArrow=classic;html=1;strokeWidth=4;strokeColor=#808080;" edge="1" parent="fN8ERMzjA76fTedo2qL7-1">
                    <mxGeometry width="50" height="50" relative="1" as="geometry">
                        <mxPoint x="320" y="520" as="sourcePoint"/>
                        <mxPoint x="400" y="360" as="targetPoint"/>
                    </mxGeometry>
                </mxCell>
                <mxCell id="fN8ERMzjA76fTedo2qL7-25" value="&lt;font style=&quot;font-size: 20px&quot;&gt;\(\boldsymbol{w}\)&lt;/font&gt;" style="text;html=1;strokeColor=none;fillColor=none;align=center;verticalAlign=middle;whiteSpace=wrap;rounded=0;fontSize=20;fontColor=#808080;" vertex="1" parent="fN8ERMzjA76fTedo2qL7-1">
                    <mxGeometry x="360" y="360" width="20" height="20" as="geometry"/>
                </mxCell>
                <mxCell id="fN8ERMzjA76fTedo2qL7-26" value="\(-1\)" style="text;html=1;strokeColor=none;fillColor=none;align=right;verticalAlign=middle;whiteSpace=wrap;rounded=0;fontSize=25;fontColor=#CC6600;" vertex="1" parent="fN8ERMzjA76fTedo2qL7-1">
                    <mxGeometry x="220" y="520" width="40" height="40" as="geometry"/>
                </mxCell>
                <mxCell id="fN8ERMzjA76fTedo2qL7-27" value="\(-2\)" style="text;html=1;strokeColor=none;fillColor=none;align=right;verticalAlign=middle;whiteSpace=wrap;rounded=0;fontSize=25;fontColor=#CC6600;" vertex="1" parent="fN8ERMzjA76fTedo2qL7-1">
                    <mxGeometry x="200" y="560" width="40" height="40" as="geometry"/>
                </mxCell>
                <mxCell id="fN8ERMzjA76fTedo2qL7-28" value="\(-3\)" style="text;html=1;strokeColor=none;fillColor=none;align=right;verticalAlign=middle;whiteSpace=wrap;rounded=0;fontSize=25;fontColor=#CC6600;" vertex="1" parent="fN8ERMzjA76fTedo2qL7-1">
                    <mxGeometry x="180" y="600" width="40" height="40" as="geometry"/>
                </mxCell>
                <mxCell id="fN8ERMzjA76fTedo2qL7-29" value="\(-4\)" style="text;html=1;strokeColor=none;fillColor=none;align=right;verticalAlign=middle;whiteSpace=wrap;rounded=0;fontSize=25;fontColor=#CC6600;" vertex="1" parent="fN8ERMzjA76fTedo2qL7-1">
                    <mxGeometry x="160" y="640" width="40" height="40" as="geometry"/>
                </mxCell>
                <mxCell id="fN8ERMzjA76fTedo2qL7-30" value="\(-5\)" style="text;html=1;strokeColor=none;fillColor=none;align=right;verticalAlign=middle;whiteSpace=wrap;rounded=0;fontSize=25;fontColor=#CC6600;" vertex="1" parent="fN8ERMzjA76fTedo2qL7-1">
                    <mxGeometry x="140" y="680" width="40" height="40" as="geometry"/>
                </mxCell>
                <mxCell id="fN8ERMzjA76fTedo2qL7-31" value="&lt;font color=&quot;#7ea6e0&quot;&gt;\(\boldsymbol{w}^{\top}\boldsymbol{x}+b&amp;gt;0\)&lt;/font&gt;" style="text;html=1;strokeColor=none;fillColor=none;align=center;verticalAlign=middle;whiteSpace=wrap;rounded=0;fontSize=20;rotation=27;fontColor=#EA6B66;" vertex="1" parent="fN8ERMzjA76fTedo2qL7-1">
                    <mxGeometry x="411" y="562" width="160" height="40" as="geometry"/>
                </mxCell>
                <mxCell id="fN8ERMzjA76fTedo2qL7-32" value="&lt;font&gt;\(\boldsymbol{w}^{\top}\boldsymbol{x}+b&amp;lt;0\)&lt;/font&gt;" style="text;html=1;strokeColor=none;fillColor=none;align=center;verticalAlign=middle;whiteSpace=wrap;rounded=0;fontSize=20;rotation=27;fontColor=#EA6B66;" vertex="1" parent="fN8ERMzjA76fTedo2qL7-1">
                    <mxGeometry x="391" y="599" width="160" height="40" as="geometry"/>
                </mxCell>
                <mxCell id="fN8ERMzjA76fTedo2qL7-33" value="" style="endArrow=none;html=1;strokeWidth=3;fontSize=20;dashed=1;strokeColor=#B3B3B3;" edge="1" parent="fN8ERMzjA76fTedo2qL7-1">
                    <mxGeometry width="50" height="50" relative="1" as="geometry">
                        <mxPoint x="420" y="420" as="sourcePoint"/>
                        <mxPoint x="460" y="440.0000000000001" as="targetPoint"/>
                    </mxGeometry>
                </mxCell>
                <mxCell id="fN8ERMzjA76fTedo2qL7-34" value="&lt;font style=&quot;font-size: 20px&quot;&gt;\(\boldsymbol{x}_0\)&lt;/font&gt;" style="text;html=1;strokeColor=none;fillColor=none;align=center;verticalAlign=middle;whiteSpace=wrap;rounded=0;fontSize=20;fontColor=#4D9900;" vertex="1" parent="fN8ERMzjA76fTedo2qL7-1">
                    <mxGeometry x="470" y="430" width="30" height="20" as="geometry"/>
                </mxCell>
                <mxCell id="fN8ERMzjA76fTedo2qL7-35" value="&lt;font style=&quot;font-size: 20px&quot;&gt;\(d\)&lt;/font&gt;" style="text;html=1;strokeColor=none;fillColor=none;align=center;verticalAlign=middle;whiteSpace=wrap;rounded=0;fontSize=20;fontColor=#97D077;" vertex="1" parent="fN8ERMzjA76fTedo2qL7-1">
                    <mxGeometry x="430" y="490" width="20" height="20" as="geometry"/>
                </mxCell>
                <mxCell id="fN8ERMzjA76fTedo2qL7-36" value="" style="endArrow=open;html=1;strokeWidth=2;startArrow=none;startFill=0;endFill=0;strokeColor=#97D077;" edge="1" parent="fN8ERMzjA76fTedo2qL7-1">
                    <mxGeometry width="50" height="50" relative="1" as="geometry">
                        <mxPoint x="400" y="560" as="sourcePoint"/>
                        <mxPoint x="460" y="440.0000000000001" as="targetPoint"/>
                    </mxGeometry>
                </mxCell>
                <mxCell id="fN8ERMzjA76fTedo2qL7-37" value="" style="endArrow=open;html=1;strokeWidth=2;startArrow=none;startFill=0;endFill=0;strokeColor=#97D077;" edge="1" parent="fN8ERMzjA76fTedo2qL7-1">
                    <mxGeometry width="50" height="50" relative="1" as="geometry">
                        <mxPoint x="260" y="340.0000000000001" as="sourcePoint"/>
                        <mxPoint x="340" y="380" as="targetPoint"/>
                    </mxGeometry>
                </mxCell>
                <mxCell id="fN8ERMzjA76fTedo2qL7-38" value="\(\boldsymbol{w}^{\top}\boldsymbol{x}_0=d\lVert\boldsymbol{w}\rVert\)" style="text;html=1;strokeColor=none;fillColor=none;align=center;verticalAlign=middle;whiteSpace=wrap;rounded=0;fontSize=20;fontColor=#97D077;" vertex="1" parent="fN8ERMzjA76fTedo2qL7-1">
                    <mxGeometry x="100" y="320" width="160" height="40" as="geometry"/>
                </mxCell>
            </root>
        </mxGraphModel>
    </diagram>
</mxfile>